HIERARCHY
ROOT joint_0
{
	OFFSET 0.000000 0.000000 0.000000
	CHANNELS 6 Xposition Yposition Zposition Zrotation Yrotation Xrotation 
	JOINT joint_1
	{
		OFFSET 4.520508 -1.939880 86.268921
		CHANNELS 3 Zrotation Yrotation Xrotation
		JOINT joint_2
		{
			OFFSET -4.459717 -0.438538 78.934082
			CHANNELS 3 Zrotation Yrotation Xrotation
			JOINT joint_3
			{
				OFFSET -5.197754 -0.781128 78.796997
				CHANNELS 3 Zrotation Yrotation Xrotation
				JOINT joint_4
				{
					OFFSET 2.952026 -3.710571 109.812988
					CHANNELS 3 Zrotation Yrotation Xrotation
					JOINT joint_5
					{
						OFFSET 24.716797 -5.488037 87.903931
						CHANNELS 3 Zrotation Yrotation Xrotation
						End Site
						{
							OFFSET 0.000000 0.000000 0.000000
						}
					}
				}
				JOINT joint_6
				{
					OFFSET -3.154419 -25.484680 60.934937
					CHANNELS 3 Zrotation Yrotation Xrotation
					JOINT joint_7
					{
						OFFSET -28.997192 -144.472229 -32.671997
						CHANNELS 3 Zrotation Yrotation Xrotation
						JOINT joint_8
						{
							OFFSET 19.867676 -18.614380 -249.897949
							CHANNELS 3 Zrotation Yrotation Xrotation
							JOINT joint_9
							{
								OFFSET 5.281982 -13.816650 -264.993042
								CHANNELS 3 Zrotation Yrotation Xrotation
								End Site
								{
									OFFSET 0.000000 0.000000 0.000000
								}
							}
						}
					}
				}
				JOINT joint_10
				{
					OFFSET 6.494995 21.336792 62.257935
					CHANNELS 3 Zrotation Yrotation Xrotation
					JOINT joint_11
					{
						OFFSET 31.106567 145.200745 -27.007935
						CHANNELS 3 Zrotation Yrotation Xrotation
						JOINT joint_12
						{
							OFFSET 29.119141 24.684326 -248.460083
							CHANNELS 3 Zrotation Yrotation Xrotation
							JOINT joint_13
							{
								OFFSET 21.220093 31.248413 -262.703979
								CHANNELS 3 Zrotation Yrotation Xrotation
								End Site
								{
									OFFSET 0.000000 0.000000 0.000000
								}
							}
						}
					}
				}
			}
		}
	}
	JOINT joint_14
	{
		OFFSET -15.458496 -88.861694 -109.593018
		CHANNELS 3 Zrotation Yrotation Xrotation
		JOINT joint_15
		{
			OFFSET -6.193359 6.837952 -506.710999
			CHANNELS 3 Zrotation Yrotation Xrotation
			JOINT joint_16
			{
				OFFSET -35.096680 13.289795 -435.677025
				CHANNELS 3 Zrotation Yrotation Xrotation
				JOINT joint_17
				{
					OFFSET 158.491211 -33.916565 -71.771002
					CHANNELS 3 Zrotation Yrotation Xrotation
					End Site
					{
						OFFSET 0.000000 0.000000 0.000000
					}
				}
			}
		}
	}
	JOINT joint_18
	{
		OFFSET 23.116943 86.574158 -110.082031
		CHANNELS 3 Zrotation Yrotation Xrotation
		JOINT joint_19
		{
			OFFSET -6.125854 -0.283569 -506.757019
			CHANNELS 3 Zrotation Yrotation Xrotation
			JOINT joint_20
			{
				OFFSET -63.240234 11.589966 -432.537994
				CHANNELS 3 Zrotation Yrotation Xrotation
				JOINT joint_21
				{
					OFFSET 156.074219 -41.487305 -73.077999
					CHANNELS 3 Zrotation Yrotation Xrotation
					End Site
					{
						OFFSET 0.000000 0.000000 0.000000
					}
				}
			}
		}
	}
}
MOTION
Frames: 18
Frame Time: 0.016667
-1097.988281 850.273010 1140.562012 -13.966080 -0.447105 0.376615 -0.103731 -1.560168 -0.663101 -0.066773 0.309709 0.136213 -0.089078 -0.293070 -0.105866 -0.049953 0.103333 0.201894 0.000000 0.000000 0.000000 -0.334119 0.934057 -0.548762 0.156342 0.514210 1.006012 -0.085084 1.022956 -1.417741 0.000000 0.000000 0.000000 0.057337 1.027999 1.298268 0.001203 1.362451 -0.286830 0.096822 -0.641964 1.966518 0.000000 0.000000 0.000000 0.256767 0.433067 -0.723711 0.243992 0.327049 -0.089072 0.220675 0.100047 0.121449 0.000000 0.000000 0.000000 -0.006841 0.550890 0.019412 -0.000526 -1.198763 -0.215524 -0.007952 0.803149 0.209659 0.000000 0.000000 0.000000 
-1098.188721 850.335754 1140.569946 -13.977141 -0.455212 0.375006 -0.107138 -1.552546 -0.654582 -0.070812 0.307139 0.133025 -0.092640 -0.291343 -0.102481 -0.051532 0.101265 0.207168 0.000000 0.000000 0.000000 -0.330976 0.936529 -0.547541 0.156635 0.517260 1.007686 -0.085356 1.026571 -1.421386 0.000000 0.000000 0.000000 0.072980 1.031834 1.291513 0.000841 1.362982 -0.291865 0.097796 -0.636481 1.968808 0.000000 0.000000 0.000000 0.259768 0.431547 -0.722820 0.246936 0.318247 -0.090170 0.223925 0.120149 0.127226 0.000000 0.000000 0.000000 -0.004939 0.546402 0.016281 0.001229 -1.194557 -0.206511 -0.005212 0.809703 0.212685 0.000000 0.000000 0.000000 
-1098.392944 850.399719 1140.578979 -13.986946 -0.462546 0.373031 -0.111747 -1.546567 -0.646613 -0.075961 0.305797 0.131026 -0.097474 -0.288796 -0.100321 -0.054032 0.097147 0.215320 0.000000 0.000000 0.000000 -0.326733 0.938521 -0.546759 0.156860 0.520100 1.008903 -0.085580 1.029434 -1.424562 0.000000 0.000000 0.000000 0.089556 1.035482 1.283863 -0.000071 1.363757 -0.301134 0.097698 -0.635762 1.966832 0.000000 0.000000 0.000000 0.261951 0.427932 -0.721203 0.249149 0.311053 -0.092039 0.226372 0.141119 0.132825 0.000000 0.000000 0.000000 -0.003332 0.539651 0.013249 0.002674 -1.188068 -0.196849 -0.002717 0.815673 0.215440 0.000000 0.000000 0.000000 
-1098.601074 850.471191 1140.588013 -13.994839 -0.470280 0.371270 -0.117009 -1.539171 -0.637647 -0.081882 0.303795 0.127578 -0.102958 -0.286632 -0.097771 -0.056625 0.092843 0.223775 0.000000 0.000000 0.000000 -0.322005 0.941146 -0.547160 0.157011 0.523505 1.009898 -0.085708 1.030810 -1.427590 0.000000 0.000000 0.000000 0.106482 1.039242 1.274174 -0.001603 1.365139 -0.315507 0.096984 -0.638661 1.963590 0.000000 0.000000 0.000000 0.263703 0.423723 -0.721102 0.250926 0.306740 -0.091596 0.228460 0.158343 0.137459 0.000000 0.000000 0.000000 -0.002179 0.532882 0.010452 0.003687 -1.181783 -0.189003 -0.000879 0.822118 0.218014 0.000000 0.000000 0.000000 
-1098.812256 850.553040 1140.597046 -14.000448 -0.479034 0.370212 -0.123166 -1.530474 -0.630254 -0.088458 0.301519 0.126876 -0.109415 -0.284884 -0.097379 -0.058458 0.090311 0.229869 0.000000 0.000000 0.000000 -0.315511 0.944539 -0.548173 0.156760 0.528394 1.009115 -0.085617 1.028939 -1.428719 0.000000 0.000000 0.000000 0.122494 1.043197 1.263524 -0.003889 1.368077 -0.336919 0.095891 -0.644501 1.960472 0.000000 0.000000 0.000000 0.264903 0.419786 -0.724246 0.252079 0.305954 -0.086339 0.230152 0.168468 0.140394 0.000000 0.000000 0.000000 -0.002035 0.526019 0.007212 0.003701 -1.174216 -0.182548 -0.000211 0.829743 0.220351 0.000000 0.000000 0.000000 
-1099.026489 850.642151 1140.605957 -14.005083 -0.487752 0.369391 -0.129949 -1.522664 -0.621893 -0.095816 0.300718 0.124243 -0.116463 -0.283115 -0.095654 -0.060244 0.087047 0.235639 0.000000 0.000000 0.000000 -0.307079 0.948031 -0.550489 0.156309 0.533816 1.007266 -0.085431 1.025667 -1.428948 0.000000 0.000000 0.000000 0.139795 1.046925 1.250357 -0.006858 1.371022 -0.363637 0.094260 -0.653668 1.956480 0.000000 0.000000 0.000000 0.265568 0.414683 -0.729191 0.252693 0.308277 -0.078214 0.231417 0.174129 0.142180 0.000000 0.000000 0.000000 -0.002059 0.518773 0.004096 0.003566 -1.166821 -0.177729 0.000087 0.837952 0.222670 0.000000 0.000000 0.000000 
-1099.246094 850.737122 1140.614990 -14.007737 -0.495902 0.369118 -0.137792 -1.514745 -0.613907 -0.104139 0.301596 0.122638 -0.124567 -0.282176 -0.093864 -0.063394 0.082053 0.245968 0.000000 0.000000 0.000000 -0.297368 0.951807 -0.554653 0.156444 0.538735 1.008312 -0.085200 1.021395 -1.433445 0.000000 0.000000 0.000000 0.160256 1.050068 1.234259 -0.010476 1.372922 -0.394424 0.092410 -0.665854 1.954314 0.000000 0.000000 0.000000 0.265587 0.407635 -0.734625 0.252727 0.312738 -0.070681 0.232013 0.179768 0.143657 0.000000 0.000000 0.000000 -0.001626 0.513213 0.000529 0.003906 -1.165437 -0.174470 0.000712 0.848944 0.225881 0.000000 0.000000 0.000000 
-1099.475098 850.839233 1140.621948 -14.009720 -0.504384 0.368922 -0.146589 -1.500401 -0.602794 -0.113645 0.297738 0.118986 -0.133634 -0.279547 -0.092001 -0.068828 0.073730 0.263848 0.000000 0.000000 0.000000 -0.286801 0.953702 -0.559034 0.156939 0.541803 1.009620 -0.085124 1.019349 -1.440704 0.000000 0.000000 0.000000 0.186048 1.051521 1.216863 -0.015040 1.373043 -0.431371 0.090473 -0.680901 1.955047 0.000000 0.000000 0.000000 0.265248 0.397818 -0.740110 0.252533 0.322364 -0.063838 0.232175 0.184310 0.144703 0.000000 0.000000 0.000000 0.000541 0.511736 -0.002890 0.006029 -1.173118 -0.173703 0.002822 0.863074 0.230624 0.000000 0.000000 0.000000 
-1099.708496 850.946899 1140.630005 -14.010804 -0.511735 0.369086 -0.156593 -1.488008 -0.590945 -0.124468 0.296515 0.113977 -0.143778 -0.276015 -0.087416 -0.075162 0.061745 0.284218 0.000000 0.000000 0.000000 -0.273172 0.955036 -0.565891 0.157890 0.544044 1.012762 -0.085009 1.016457 -1.451425 0.000000 0.000000 0.000000 0.216808 1.052196 1.194855 -0.020224 1.371064 -0.471538 0.088236 -0.699098 1.956976 0.000000 0.000000 0.000000 0.264594 0.385432 -0.745970 0.252098 0.334017 -0.057474 0.232014 0.189382 0.145715 0.000000 0.000000 0.000000 0.003410 0.511473 -0.006488 0.008879 -1.186946 -0.174656 0.005472 0.880165 0.236407 0.000000 0.000000 0.000000 
-1099.944946 851.058655 1140.640015 -14.009964 -0.517197 0.370375 -0.169157 -1.476633 -0.581103 -0.137631 0.293629 0.111202 -0.156557 -0.273195 -0.085420 -0.083268 0.052685 0.311662 0.000000 0.000000 0.000000 -0.248718 0.961127 -0.576759 0.160538 0.549710 1.028915 -0.084471 1.006453 -1.473495 0.000000 0.000000 0.000000 0.257472 1.054311 1.167852 -0.025019 1.366588 -0.506616 0.085616 -0.718102 1.956248 0.000000 0.000000 0.000000 0.263521 0.373495 -0.752431 0.251168 0.340008 -0.052949 0.231427 0.197967 0.147287 0.000000 0.000000 0.000000 0.005638 0.509408 -0.012733 0.011014 -1.202169 -0.173290 0.007793 0.897964 0.242224 0.000000 0.000000 0.000000 
-1100.173584 851.175293 1140.655029 -14.007189 -0.517596 0.373895 -0.186436 -1.476072 -0.571954 -0.155550 0.293915 0.108244 -0.174113 -0.272767 -0.083004 -0.093098 0.049134 0.346587 0.000000 0.000000 0.000000 -0.200501 0.976695 -0.596507 0.165851 0.563593 1.066348 -0.083083 0.982515 -1.514734 0.000000 0.000000 0.000000 0.317007 1.061080 1.130359 -0.028932 1.359028 -0.531734 0.082165 -0.739138 1.950103 0.000000 0.000000 0.000000 0.261970 0.360795 -0.760677 0.249643 0.336510 -0.050791 0.230419 0.212749 0.149993 0.000000 0.000000 0.000000 0.006949 0.503038 -0.024485 0.012076 -1.219785 -0.166765 0.009855 0.916869 0.248213 0.000000 0.000000 0.000000 
-1100.405029 851.296021 1140.671997 -14.002441 -0.516231 0.377981 -0.206425 -1.477247 -0.563634 -0.176081 0.293784 0.106485 -0.194440 -0.272468 -0.081962 -0.104268 0.046209 0.386583 0.000000 0.000000 0.000000 -0.141338 0.996568 -0.620898 0.172946 0.580361 1.116655 -0.081227 0.951243 -1.567563 0.000000 0.000000 0.000000 0.387054 1.069013 1.086958 -0.032451 1.348295 -0.551323 0.078276 -0.760947 1.940699 0.000000 0.000000 0.000000 0.259865 0.348718 -0.768837 0.247497 0.327231 -0.050519 0.228865 0.231284 0.153254 0.000000 0.000000 0.000000 0.007505 0.494943 -0.038100 0.012322 -1.238680 -0.158182 0.011453 0.936531 0.254185 0.000000 0.000000 0.000000 
-1100.654907 851.415161 1140.688965 -13.996041 -0.514523 0.380247 -0.225774 -1.475738 -0.559490 -0.195666 0.293905 0.105751 -0.213889 -0.271205 -0.081078 -0.114298 0.042727 0.422375 0.000000 0.000000 0.000000 -0.093652 1.012805 -0.644034 0.179786 0.591793 1.164076 -0.079623 0.924477 -1.615190 0.000000 0.000000 0.000000 0.448844 1.075145 1.043210 -0.035792 1.336732 -0.568571 0.074865 -0.781782 1.934627 0.000000 0.000000 0.000000 0.257325 0.337027 -0.774361 0.244910 0.314253 -0.050823 0.226984 0.253050 0.157059 0.000000 0.000000 0.000000 0.006774 0.482466 -0.047317 0.011360 -1.251737 -0.152889 0.011354 0.954848 0.259003 0.000000 0.000000 0.000000 
-1100.933960 851.527710 1140.702026 -13.985311 -0.515228 0.378844 -0.245187 -1.466451 -0.560781 -0.214885 0.294218 0.106444 -0.233144 -0.270655 -0.081250 -0.122036 0.039133 0.449864 0.000000 0.000000 0.000000 -0.066292 1.022461 -0.665476 0.186375 0.593180 1.207887 -0.078700 0.908709 -1.654584 0.000000 0.000000 0.000000 0.498522 1.079221 1.000528 -0.038780 1.324794 -0.581866 0.072264 -0.801010 1.934369 0.000000 0.000000 0.000000 0.252926 0.328589 -0.774499 0.240455 0.297326 -0.051956 0.223375 0.277636 0.160683 0.000000 0.000000 0.000000 0.003693 0.465458 -0.048031 0.008216 -1.253646 -0.153802 0.008168 0.968931 0.261247 0.000000 0.000000 0.000000 
-1101.232422 851.638977 1140.714966 -13.972318 -0.516089 0.375351 -0.264568 -1.452761 -0.566331 -0.233667 0.292722 0.109810 -0.252215 -0.267623 -0.083416 -0.128605 0.033920 0.472776 0.000000 0.000000 0.000000 -0.049261 1.027740 -0.685142 0.192699 0.588863 1.248810 -0.078074 0.897821 -1.688711 0.000000 0.000000 0.000000 0.541511 1.080989 0.957954 -0.041573 1.311264 -0.592490 0.070192 -0.818290 1.936684 0.000000 0.000000 0.000000 0.247760 0.321034 -0.771657 0.235226 0.276840 -0.053599 0.219107 0.304795 0.164560 0.000000 0.000000 0.000000 -0.000960 0.444337 -0.044065 0.003581 -1.249405 -0.157843 0.003039 0.981650 0.262216 0.000000 0.000000 0.000000 
-1101.539062 851.757019 1140.729004 -13.963466 -0.516616 0.370454 -0.280207 -1.433721 -0.571681 -0.248740 0.290622 0.111829 -0.267386 -0.264668 -0.084041 -0.134029 0.027549 0.491285 0.000000 0.000000 0.000000 -0.037626 1.030377 -0.699790 0.196834 0.585005 1.275618 -0.077283 0.884978 -1.710011 0.000000 0.000000 0.000000 0.574167 1.079822 0.921087 -0.045068 1.299490 -0.610889 0.068290 -0.835203 1.940134 0.000000 0.000000 0.000000 0.244008 0.312711 -0.767116 0.231453 0.255252 -0.056401 0.216193 0.333172 0.169311 0.000000 0.000000 0.000000 -0.004263 0.423647 -0.037646 0.000358 -1.247115 -0.164246 -0.001064 0.995555 0.263982 0.000000 0.000000 0.000000 
-1101.849609 851.889893 1140.744995 -13.959086 -0.516409 0.362746 -0.293362 -1.407239 -0.571441 -0.261738 0.285319 0.110602 -0.280080 -0.258746 -0.082755 -0.137629 0.018222 0.502499 0.000000 0.000000 0.000000 -0.024004 1.028687 -0.707705 0.197165 0.584063 1.279460 -0.075842 0.862894 -1.709919 0.000000 0.000000 0.000000 0.601577 1.073865 0.892763 -0.050095 1.288903 -0.645271 0.067056 -0.848708 1.945597 0.000000 0.000000 0.000000 0.242060 0.303537 -0.760141 0.229523 0.231980 -0.059783 0.215067 0.362766 0.175132 0.000000 0.000000 0.000000 -0.006242 0.405236 -0.027481 -0.001445 -1.251299 -0.173595 -0.004148 1.013113 0.267196 0.000000 0.000000 0.000000 
-1102.168457 852.029541 1140.762939 -13.958889 -0.515488 0.353482 -0.303087 -1.376239 -0.570631 -0.271372 0.279997 0.107935 -0.289215 -0.252948 -0.079838 -0.139891 0.007206 0.508461 0.000000 0.000000 0.000000 -0.014631 1.024047 -0.710661 0.195228 0.583601 1.268852 -0.074252 0.839004 -1.696524 0.000000 0.000000 0.000000 0.619942 1.065054 0.869410 -0.055723 1.279593 -0.686580 0.066021 -0.861171 1.951563 0.000000 0.000000 0.000000 0.241640 0.293137 -0.751272 0.229173 0.207537 -0.064363 0.215421 0.394347 0.182050 0.000000 0.000000 0.000000 -0.006913 0.386659 -0.014670 -0.001879 -1.257306 -0.185219 -0.006243 1.032115 0.271258 0.000000 0.000000 0.000000 
